<svg xmlns="http://www.w3.org/2000/svg" width="1200" height="630" viewBox="0 0 1200 630" role="img" aria-label="ModusTel | Prototype-to-Production Systems">
  <defs>
    <linearGradient id="bg" x1="0" y1="0" x2="1" y2="1">
      <stop offset="0%" stop-color="#0b1120" />
      <stop offset="55%" stop-color="#132a5e" />
      <stop offset="100%" stop-color="#1d4ed8" />
    </linearGradient>
    <radialGradient id="glow" cx="0.2" cy="0.15" r="0.6">
      <stop offset="0%" stop-color="#38bdf8" stop-opacity="0.6" />
      <stop offset="100%" stop-color="#38bdf8" stop-opacity="0" />
    </radialGradient>
    <radialGradient id="glow2" cx="0.85" cy="0.9" r="0.5">
      <stop offset="0%" stop-color="#a855f7" stop-opacity="0.55" />
      <stop offset="100%" stop-color="#a855f7" stop-opacity="0" />
    </radialGradient>
  </defs>

  <rect width="1200" height="630" fill="url(#bg)" />
  <rect width="1200" height="630" fill="url(#glow)" />
  <rect width="1200" height="630" fill="url(#glow2)" />

  <g opacity="0.2" stroke="#ffffff" stroke-width="1">
    <path d="M0 120h1200" />
    <path d="M0 230h1200" />
    <path d="M0 340h1200" />
    <path d="M0 450h1200" />
    <path d="M160 0v630" />
    <path d="M360 0v630" />
    <path d="M560 0v630" />
    <path d="M760 0v630" />
    <path d="M960 0v630" />
  </g>

  <g transform="translate(120 120) scale(0.32)" fill="none" stroke="#ffffff" stroke-linecap="round" stroke-linejoin="round">
    <polygon points="256 48 448 160 448 352 256 464 64 352 64 160" stroke-width="48" />
    <path d="M176 360 V200 L256 288 L336 200 V360" stroke-width="64" />
  </g>

  <text x="120" y="360" fill="#ffffff" font-size="72" font-weight="700" font-family="Inter, system-ui, sans-serif">
    ModusTel
  </text>
  <text x="120" y="430" fill="#e2e8f0" font-size="36" font-weight="500" font-family="Inter, system-ui, sans-serif">
    Prototype-to-Production Systems
  </text>
  <text x="120" y="490" fill="#93c5fd" font-size="24" font-weight="500" font-family="Inter, system-ui, sans-serif" letter-spacing="1.5">
    modustel.com
  </text>
</svg>
