<svg version="1.1" id="Layer_1" xmlns="http://www.w3.org/2000/svg" xmlns:xlink="http://www.w3.org/1999/xlink" x="0px" y="0px"
	 width="100%" viewBox="0 0 425 462" enable-background="new 0 0 425 462" xml:space="preserve">
<path  opacity="1.000000" stroke="none" 
	d="
M426.000000,183.000000 
	C426.000000,276.640442 426.000000,369.780853 426.000000,462.960632 
	C284.399475,462.960632 142.798950,462.960632 1.099205,462.960632 
	C1.099205,309.109558 1.099205,155.219040 1.099205,1.164262 
	C142.666519,1.164262 284.333252,1.164262 426.000000,1.164262 
	C426.000000,61.534428 426.000000,122.017212 426.000000,183.000000 
M194.724213,13.191681 
	C193.717133,13.773981 192.720978,14.376209 191.701370,14.935714 
	C132.117828,47.632248 72.546898,80.351822 12.920913,112.970757 
	C7.869815,115.734001 4.831640,118.794472 4.870553,125.280220 
	C5.299470,196.768387 5.526122,268.258331 5.507947,339.747711 
	C5.506190,346.660187 7.721244,350.561218 13.807301,353.884766 
	C55.229427,376.505127 96.451691,399.491364 137.757690,422.324738 
	C141.489609,424.387726 145.357269,426.205200 150.004623,428.564514 
	C150.428207,425.671356 150.965439,423.631927 150.986542,421.587158 
	C151.103455,410.255859 150.678558,398.901093 151.279572,387.599060 
	C151.662720,380.393555 148.970367,376.360565 142.724777,373.036255 
	C113.681297,357.577301 84.867004,341.688324 55.901386,326.081848 
	C51.961754,323.959229 50.013405,321.339844 50.022495,316.693878 
	C50.129807,261.865875 50.132710,207.037552 50.043762,152.209503 
	C50.036335,147.631561 51.794544,144.923096 55.778839,142.729935 
	C106.296730,114.922401 156.766083,87.026344 207.174988,59.021782 
	C211.943542,56.372623 215.960205,56.484612 220.690308,59.121468 
	C270.043091,86.633797 319.435760,114.075539 368.944244,141.306168 
	C374.823090,144.539627 377.043427,148.513931 377.016998,155.193573 
	C376.810242,207.521118 376.775085,259.850800 377.089539,312.177368 
	C377.136810,320.039551 374.647369,324.558533 367.610260,328.280579 
	C339.114349,343.352509 310.938263,359.028534 282.613220,374.424713 
	C279.234650,376.261108 276.391022,378.213196 276.455048,382.625427 
	C276.658203,396.620819 276.765991,410.617584 276.932617,424.613556 
	C276.977417,428.378265 278.792755,428.875458 281.756409,427.127747 
	C285.622131,424.848114 289.448364,422.496643 293.371277,420.319702 
	C333.768097,397.902130 374.148438,375.454224 414.629364,353.189423 
	C419.900299,350.290375 422.285522,346.654999 422.275269,340.522614 
	C422.154724,268.529633 422.177795,196.536209 422.319702,124.543213 
	C422.330322,119.159286 420.316376,116.096992 415.633759,113.559181 
	C385.390991,97.168587 355.269348,80.554100 325.134155,63.965431 
	C289.904083,44.572136 254.675385,25.175863 219.519928,5.647985 
	C215.420319,3.370772 211.905411,3.097448 207.919418,5.674211 
	C203.877762,8.286963 199.582108,10.506774 194.724213,13.191681 
M130.201324,257.831329 
	C130.702911,250.646164 131.433533,250.235214 137.855133,253.814392 
	C150.051437,260.612244 162.112091,267.663910 174.451111,274.190369 
	C179.932739,277.089783 181.822342,281.071106 181.770721,287.047089 
	C181.579239,309.211853 181.709259,331.379395 181.715347,353.545898 
	C181.722946,381.212372 181.811813,408.879333 181.654526,436.544861 
	C181.626602,441.458099 183.144058,444.622131 187.655838,446.868591 
	C194.193604,450.123871 200.580048,453.732208 206.793503,457.574127 
	C211.795807,460.667206 216.300262,460.578278 221.203918,457.448639 
	C226.099396,454.324249 231.052856,451.130188 236.360611,448.850952 
	C243.853897,445.633209 246.366577,440.560425 246.307922,432.464874 
	C245.956619,383.967438 246.123703,335.466461 245.932404,286.967377 
	C245.907028,280.534027 248.236679,276.475281 254.009857,273.477142 
	C265.656982,267.428528 277.021454,260.834137 288.480682,254.425812 
	C296.400055,249.997070 296.998871,250.334854 296.999054,259.619293 
	C296.999512,283.119049 296.987915,306.618774 296.980591,330.118530 
	C296.978882,335.571167 298.523193,336.528198 303.129181,333.960358 
	C315.468170,327.081421 327.681976,319.960052 340.218903,313.462494 
	C345.539948,310.704773 347.497986,307.252075 347.462738,301.312164 
	C347.198639,256.813721 347.226929,212.313538 347.140778,167.813950 
	C347.137085,165.902924 346.909241,163.992325 346.725128,161.141907 
	C344.039795,162.321365 342.073975,163.010590 340.273895,164.001099 
	C300.086548,186.114304 259.880066,208.193527 219.797073,230.494675 
	C215.311584,232.990280 211.908020,232.931244 207.437744,230.440704 
	C166.932312,207.873871 126.300301,185.534195 85.693382,163.149719 
	C80.490898,160.281876 79.851921,160.680542 79.847824,166.660477 
	C79.816750,211.993484 79.850914,257.326660 79.708656,302.659271 
	C79.694252,307.247681 81.312393,309.988220 85.339226,312.160767 
	C98.501434,319.262146 111.479401,326.704376 124.582497,333.916901 
	C126.030029,334.713684 127.827133,334.875397 130.199661,335.537476 
	C130.199661,309.378693 130.199661,284.074554 130.201324,257.831329 
z"/>
<path fill="#d97706" opacity="1.000000" stroke="none" 
	d="
M195.060944,13.045181 
	C199.582108,10.506774 203.877762,8.286963 207.919418,5.674211 
	C211.905411,3.097448 215.420319,3.370772 219.519928,5.647985 
	C254.675385,25.175863 289.904083,44.572136 325.134155,63.965431 
	C355.269348,80.554100 385.390991,97.168587 415.633759,113.559181 
	C420.316376,116.096992 422.330322,119.159286 422.319702,124.543213 
	C422.177795,196.536209 422.154724,268.529633 422.275269,340.522614 
	C422.285522,346.654999 419.900299,350.290375 414.629364,353.189423 
	C374.148438,375.454224 333.768097,397.902130 293.371277,420.319702 
	C289.448364,422.496643 285.622131,424.848114 281.756409,427.127747 
	C278.792755,428.875458 276.977417,428.378265 276.932617,424.613556 
	C276.765991,410.617584 276.658203,396.620819 276.455048,382.625427 
	C276.391022,378.213196 279.234650,376.261108 282.613220,374.424713 
	C310.938263,359.028534 339.114349,343.352509 367.610260,328.280579 
	C374.647369,324.558533 377.136810,320.039551 377.089539,312.177368 
	C376.775085,259.850800 376.810242,207.521118 377.016998,155.193573 
	C377.043427,148.513931 374.823090,144.539627 368.944244,141.306168 
	C319.435760,114.075539 270.043091,86.633797 220.690308,59.121468 
	C215.960205,56.484612 211.943542,56.372623 207.174988,59.021782 
	C156.766083,87.026344 106.296730,114.922401 55.778839,142.729935 
	C51.794544,144.923096 50.036335,147.631561 50.043762,152.209503 
	C50.132710,207.037552 50.129807,261.865875 50.022495,316.693878 
	C50.013405,321.339844 51.961754,323.959229 55.901386,326.081848 
	C84.867004,341.688324 113.681297,357.577301 142.724777,373.036255 
	C148.970367,376.360565 151.662720,380.393555 151.279572,387.599060 
	C150.678558,398.901093 151.103455,410.255859 150.986542,421.587158 
	C150.965439,423.631927 150.428207,425.671356 150.004623,428.564514 
	C145.357269,426.205200 141.489609,424.387726 137.757690,422.324738 
	C96.451691,399.491364 55.229427,376.505127 13.807301,353.884766 
	C7.721244,350.561218 5.506190,346.660187 5.507947,339.747711 
	C5.526122,268.258331 5.299470,196.768387 4.870553,125.280220 
	C4.831640,118.794472 7.869815,115.734001 12.920913,112.970757 
	C72.546898,80.351822 132.117828,47.632248 191.701370,14.935714 
	C192.720978,14.376209 193.717133,13.773981 195.060944,13.045181 
z"/>
<path fill="#d97706" opacity="1.000000" stroke="none" 
	d="
M130.200500,258.300842 
	C130.199661,284.074554 130.199661,309.378693 130.199661,335.537476 
	C127.827133,334.875397 126.030029,334.713684 124.582497,333.916901 
	C111.479401,326.704376 98.501434,319.262146 85.339226,312.160767 
	C81.312393,309.988220 79.694252,307.247681 79.708656,302.659271 
	C79.850914,257.326660 79.816750,211.993484 79.847824,166.660477 
	C79.851921,160.680542 80.490898,160.281876 85.693382,163.149719 
	C126.300301,185.534195 166.932312,207.873871 207.437744,230.440704 
	C211.908020,232.931244 215.311584,232.990280 219.797073,230.494675 
	C259.880066,208.193527 300.086548,186.114304 340.273895,164.001099 
	C342.073975,163.010590 344.039795,162.321365 346.725128,161.141907 
	C346.909241,163.992325 347.137085,165.902924 347.140778,167.813950 
	C347.226929,212.313538 347.198639,256.813721 347.462738,301.312164 
	C347.497986,307.252075 345.539948,310.704773 340.218903,313.462494 
	C327.681976,319.960052 315.468170,327.081421 303.129181,333.960358 
	C298.523193,336.528198 296.978882,335.571167 296.980591,330.118530 
	C296.987915,306.618774 296.999512,283.119049 296.999054,259.619293 
	C296.998871,250.334854 296.400055,249.997070 288.480682,254.425812 
	C277.021454,260.834137 265.656982,267.428528 254.009857,273.477142 
	C248.236679,276.475281 245.907028,280.534027 245.932404,286.967377 
	C246.123703,335.466461 245.956619,383.967438 246.307922,432.464874 
	C246.366577,440.560425 243.853897,445.633209 236.360611,448.850952 
	C231.052856,451.130188 226.099396,454.324249 221.203918,457.448639 
	C216.300262,460.578278 211.795807,460.667206 206.793503,457.574127 
	C200.580048,453.732208 194.193604,450.123871 187.655838,446.868591 
	C183.144058,444.622131 181.626602,441.458099 181.654526,436.544861 
	C181.811813,408.879333 181.722946,381.212372 181.715347,353.545898 
	C181.709259,331.379395 181.579239,309.211853 181.770721,287.047089 
	C181.822342,281.071106 179.932739,277.089783 174.451111,274.190369 
	C162.112091,267.663910 150.051437,260.612244 137.855133,253.814392 
	C131.433533,250.235214 130.702911,250.646164 130.200500,258.300842 
z"/>
</svg>